<svg xmlns="http://www.w3.org/2000/svg" width="23" height="26" viewBox="0 0 23 26">
    <g fill="#3A3A3A" fill-rule="evenodd">
        <path fill-rule="nonzero" d="M18.5 1.551h-5.36V0H5.86v1.551H.5V4h18V1.551zM7.789 1.224h3.422v.327H7.789v-.327z"/>
        <path d="M16.167 12.762L16.5 8h-14l1.118 16h6.716a6.805 6.805 0 0 1-1.389-4.106c0-3.815 3.205-6.94 7.222-7.132z"/>
        <path fill-rule="nonzero" d="M16.5 14c-3.308 0-6 2.692-6 6s2.692 6 6 6 6-2.692 6-6-2.692-6-6-6zm3.27 7.99l-1.28 1.28-1.99-1.99-1.99 1.99-1.28-1.28L15.22 20l-1.99-1.99 1.28-1.28 1.99 1.99 1.99-1.99 1.28 1.28L17.78 20l1.99 1.99z"/>
    </g>
</svg>
