<?xml version="1.0" encoding="iso-8859-1"?>
<!-- Generator: Adobe Illustrator 19.1.0, SVG Export Plug-In . SVG Version: 6.00 Build 0)  -->
<svg xmlns="http://www.w3.org/2000/svg" xmlns:xlink="http://www.w3.org/1999/xlink" version="1.1" id="Capa_1" x="0px" y="0px" viewBox="0 0 304.741 304.741" style="enable-background:new 0 0 304.741 304.741;" xml:space="preserve" width="512px" height="512px">
<g>
	<path d="M91.88,176.963h113.671c13.554,0,24.595-11.035,24.595-24.596s-11.041-24.602-24.595-24.602H91.88l13.599-13.599   c9.582-9.582,9.582-25.2,0-34.788c-9.287-9.28-25.495-9.28-34.782,0L15.092,134.97l-0.746,0.758l-0.045,0.077   c-0.81,0.906-1.575,1.877-2.275,2.924c-0.353,0.546-0.662,1.105-0.945,1.677l-0.379,0.701c-0.334,0.591-0.656,1.183-0.919,1.825   c-0.315,0.745-0.54,1.497-0.746,2.269l-0.219,0.726c-0.161,0.514-0.315,1.022-0.443,1.626c-0.643,3.207-0.636,6.453,0.006,9.685   c0.122,0.559,0.283,1.099,0.456,1.639l0.244,0.835c0.193,0.694,0.398,1.395,0.688,2.082c0.302,0.713,0.662,1.382,1.035,2.05   l0.328,0.585c0.27,0.546,0.559,1.08,0.893,1.575c0.913,1.375,1.967,2.654,3.111,3.792l55.56,55.56   c4.64,4.659,10.816,7.211,17.391,7.211c6.568,0,12.744-2.551,17.397-7.211c4.647-4.653,7.204-10.829,7.204-17.391   c0-6.568-2.558-12.744-7.204-17.391L91.88,176.963z M96.391,216.257c-4.441,4.434-12.185,4.434-16.607,0l-55.579-55.573   c-0.553-0.553-1.041-1.15-1.594-2.031l-0.623-1.163c-0.122-0.219-0.264-0.418-0.521-1.221l-0.495-1.594   c-0.302-1.523-0.302-3.085,0.064-4.743l0.392-1.305c0.064-0.257,0.116-0.508,0.469-1.208l0.829-1.568   c0.424-0.636,0.906-1.228,1.446-1.767l0.733-0.733l0.006-0.013l54.879-54.879c4.428-4.422,12.179-4.422,16.607,0   c4.576,4.582,4.576,12.031,0,16.613l-35.54,35.54h144.694c6.478,0,11.742,5.27,11.742,11.748c0,6.478-5.264,11.742-11.742,11.742   H60.844l35.547,35.547C100.967,204.232,100.967,211.674,96.391,216.257z M296.844,0v304.741H143.14   c-3.56,0-6.427-2.873-6.427-6.427s2.866-6.427,6.427-6.427h140.851V12.854H142.6c-3.56,0-6.427-2.873-6.427-6.427S139.04,0,142.6,0   H296.844z" fill="#FFFFFF"/>
</g>
<g>
</g>
<g>
</g>
<g>
</g>
<g>
</g>
<g>
</g>
<g>
</g>
<g>
</g>
<g>
</g>
<g>
</g>
<g>
</g>
<g>
</g>
<g>
</g>
<g>
</g>
<g>
</g>
<g>
</g>
</svg>
