<svg xmlns="http://www.w3.org/2000/svg" width="33" height="33" viewBox="0 0 33 33">
    <path fill="#FFF" fill-rule="nonzero" d="M16.5 0C7.387 0 0 7.388 0 16.5S7.387 33 16.5 33C25.612 33 33 25.612 33 16.5 33 7.387 25.612 0 16.5 0zm7.843 11.874l-1.567 1.567-3.19-3.19-1.21 1.21 3.19 3.19-7.825 7.824-3.19-3.19-1.21 1.211 3.19 3.19-.78.78-.014-.015a.617.617 0 0 1-.394.283l-2.975.663a.615.615 0 0 1-.572-.166.617.617 0 0 1-.166-.572l.663-2.974a.62.62 0 0 1 .283-.394l-.015-.015L21.153 8.684a.473.473 0 0 1 .67 0l2.52 2.52a.473.473 0 0 1 0 .67z"/>
</svg>
