<svg xmlns="http://www.w3.org/2000/svg" width="25" height="25" viewBox="0 0 25 25">
    <path fill="#3A3A3A" fill-rule="evenodd" d="M21.34 3.08A12.411 12.411 0 0 0 16.525 0v3.875a8.929 8.929 0 0 1 2.357 1.724c3.52 3.618 3.52 9.502 0 13.119a8.877 8.877 0 0 1-12.768 0c-3.516-3.62-3.516-9.5 0-13.12.009-.01.037-.028.05-.045h.003l2.086 2.14L8.24.898 1.63.89l2.078 2.134a.213.213 0 0 1-.048.057c-4.88 5.012-4.88 13.144 0 18.157 4.887 5.017 12.796 5.017 17.68 0 4.877-5.013 4.882-13.145 0-18.157z"/>
</svg>
