<svg xmlns="http://www.w3.org/2000/svg" xmlns:xlink="http://www.w3.org/1999/xlink" width="32" height="29" viewBox="0 0 32 29">
    <defs>
        <path id="a" d="M16 29l-2.24-2.207C5.44 19.543 0 14.658 0 8.668 0 3.783 3.84 0 8.8 0c2.72 0 5.44 1.26 7.2 3.31C17.76 1.26 20.48 0 23.2 0 28.16 0 32 3.783 32 8.668c0 5.99-5.44 10.875-13.76 18.125L16 29z"/>
    </defs>
    <g fill="none" fill-rule="evenodd">
        <mask id="b" fill="#fff">
            <use xlink:href="#a"/>
        </mask>
        <path fill="#FFDA44" d="M22.802-8.09A19.894 19.894 0 0 0 16-9.28c-2.392 0-4.683.421-6.802 1.19l-1.7 17.95 1.7 17.95C11.317 28.578 13.608 29 16 29c2.392 0 4.683-.421 6.802-1.19l1.7-17.95-1.7-17.95z" mask="url(#b)"/>
        <path fill="#D80027" d="M35.556 9.86c0-8.23-5.307-15.245-12.754-17.95v35.9c7.447-2.705 12.753-9.72 12.754-17.95z" mask="url(#b)"/>
        <path fill="#0052B4" d="M-3.556 9.86c0 8.23 5.307 15.245 12.754 17.95v-35.9C1.751-5.384-3.556 1.63-3.556 9.86z" mask="url(#b)"/>
    </g>
</svg>
